{
	"asset":{
		"generator":"Khronos glTF Blender I/O v5.0.21",
		"version":"2.0"
	},
	"extensionsUsed":[
		"KHR_materials_specular"
	],
	"scene":0,
	"scenes":[
		{
			"name":"Scene",
			"nodes":[
				12
			]
		}
	],
	"nodes":[
		{
			"name":"Mouth",
			"rotation":[
				0.7442150115966797,
				0.0031946238595992327,
				0.002149284817278385,
				0.6679290533065796
			],
			"scale":[
				1,
				1,
				0.9999999403953552
			],
			"translation":[
				0.011141641065478325,
				1.1006146669387817,
				1.1285037994384766
			]
		},
		{
			"children":[
				0
			],
			"name":"Head",
			"rotation":[
				0.07430148869752884,
				-0.00024954756372608244,
				-0.0038417663890868425,
				0.9972283840179443
			],
			"translation":[
				0,
				1.655672550201416,
				0
			]
		},
		{
			"name":"HandR",
			"rotation":[
				-0.08725066483020782,
				-0.014036686159670353,
				-0.2582221031188965,
				0.9620351791381836
			],
			"scale":[
				1,
				0.9999998807907104,
				0.9999998807907104
			],
			"translation":[
				6.705522537231445e-08,
				0.6985456943511963,
				6.705522537231445e-08
			]
		},
		{
			"children":[
				2
			],
			"name":"ArmR",
			"rotation":[
				0.8867049813270569,
				-0.2748775780200958,
				0.17634792625904083,
				0.32725831866264343
			],
			"scale":[
				1.0000001192092896,
				1,
				1
			],
			"translation":[
				-0.8030014038085938,
				1.2200663089752197,
				0.2218526005744934
			]
		},
		{
			"name":"HandL",
			"rotation":[
				-0.29356032609939575,
				-0.07250162214040756,
				0.1093251183629036,
				0.9468969702720642
			],
			"scale":[
				0.9999999403953552,
				1,
				0.9999999403953552
			],
			"translation":[
				1.2665987014770508e-07,
				0.4319884181022644,
				-4.470348358154297e-08
			]
		},
		{
			"children":[
				4
			],
			"name":"ArmL",
			"rotation":[
				-0.9392267465591431,
				-0.32134440541267395,
				-0.12018521130084991,
				0.012100882828235626
			],
			"scale":[
				1.000000238418579,
				1.0000001192092896,
				0.9999999403953552
			],
			"translation":[
				0.9764636754989624,
				1.0346834659576416,
				0.4644690752029419
			]
		},
		{
			"name":"FootR",
			"rotation":[
				-0.5515239834785461,
				0.19175732135772705,
				-0.21713347733020782,
				0.7822426557540894
			],
			"scale":[
				1.0000001192092896,
				1,
				0.9999999403953552
			],
			"translation":[
				5.960464477539063e-08,
				0.6985455751419067,
				-8.940696716308594e-08
			]
		},
		{
			"children":[
				6
			],
			"name":"LegR",
			"rotation":[
				0.8867049813270569,
				-0.27487751841545105,
				0.176348015666008,
				0.3272583484649658
			],
			"translation":[
				-0.9090089797973633,
				-0.8594095706939697,
				0.9438920617103577
			]
		},
		{
			"name":"FootL",
			"rotation":[
				-0.4475269913673401,
				0.07147479802370071,
				-0.49423903226852417,
				0.7418482303619385
			],
			"translation":[
				-2.2351741790771484e-07,
				0.7998586297035217,
				-1.4901161193847656e-08
			]
		},
		{
			"children":[
				8
			],
			"name":"LegL",
			"rotation":[
				0.9276708364486694,
				0.2220137119293213,
				0.17074982821941376,
				0.24694393575191498
			],
			"scale":[
				0.9999999403953552,
				0.9999998807907104,
				0.9999998807907104
			],
			"translation":[
				1.0602291822433472,
				-0.8260087966918945,
				0.9974492788314819
			]
		},
		{
			"children":[
				1,
				3,
				5,
				7,
				9
			],
			"name":"Body",
			"translation":[
				0,
				-0.327836275100708,
				0
			]
		},
		{
			"mesh":0,
			"name":"CleanLow",
			"skin":0
		},
		{
			"children":[
				11,
				10
			],
			"name":"Armature",
			"translation":[
				-0.00041990727186203003,
				2.118973731994629,
				-0.7175187468528748
			]
		}
	],
	"materials":[
		{
			"doubleSided":true,
			"extensions":{
				"KHR_materials_specular":{
					"specularFactor":0
				}
			},
			"name":"AgumonClean_MAT",
			"normalTexture":{
				"index":0,
				"scale":0.10000032186508179
			},
			"pbrMetallicRoughness":{
				"baseColorTexture":{
					"index":1
				},
				"metallicFactor":0
			}
		}
	],
	"meshes":[
		{
			"name":"texturedMesh.003",
			"primitives":[
				{
					"attributes":{
						"POSITION":0,
						"NORMAL":1,
						"TEXCOORD_0":2,
						"JOINTS_0":3,
						"WEIGHTS_0":4
					},
					"indices":5,
					"material":0
				}
			]
		}
	],
	"textures":[
		{
			"sampler":0,
			"source":0
		},
		{
			"sampler":0,
			"source":1
		}
	],
	"images":[
		{
			"mimeType":"image/png",
			"name":"Agumon_NOR",
			"uri":"texture/Agumon_NOR.png"
		},
		{
			"mimeType":"image/png",
			"name":"Agumon_DIF",
			"uri":"texture/Agumon_DIF.png"
		}
	],
	"skins":[
		{
			"inverseBindMatrices":6,
			"joints":[
				10,
				1,
				0,
				3,
				2,
				5,
				4,
				7,
				6,
				9,
				8
			],
			"name":"Armature"
		}
	],
	"accessors":[
		{
			"bufferView":0,
			"componentType":5126,
			"count":7326,
			"max":[
				1.860358715057373,
				6.238897800445557,
				2.1873838901519775
			],
			"min":[
				-1.875319004058838,
				-0.13945820927619934,
				-2.1149492263793945
			],
			"type":"VEC3"
		},
		{
			"bufferView":1,
			"componentType":5126,
			"count":7326,
			"type":"VEC3"
		},
		{
			"bufferView":2,
			"componentType":5126,
			"count":7326,
			"type":"VEC2"
		},
		{
			"bufferView":3,
			"componentType":5121,
			"count":7326,
			"type":"VEC4"
		},
		{
			"bufferView":4,
			"componentType":5126,
			"count":7326,
			"type":"VEC4"
		},
		{
			"bufferView":5,
			"componentType":5123,
			"count":40818,
			"type":"SCALAR"
		},
		{
			"bufferView":6,
			"componentType":5126,
			"count":11,
			"type":"MAT4"
		}
	],
	"bufferViews":[
		{
			"buffer":0,
			"byteLength":87912,
			"byteOffset":0,
			"target":34962
		},
		{
			"buffer":0,
			"byteLength":87912,
			"byteOffset":87912,
			"target":34962
		},
		{
			"buffer":0,
			"byteLength":58608,
			"byteOffset":175824,
			"target":34962
		},
		{
			"buffer":0,
			"byteLength":29304,
			"byteOffset":234432,
			"target":34962
		},
		{
			"buffer":0,
			"byteLength":117216,
			"byteOffset":263736,
			"target":34962
		},
		{
			"buffer":0,
			"byteLength":81636,
			"byteOffset":380952,
			"target":34963
		},
		{
			"buffer":0,
			"byteLength":704,
			"byteOffset":462588
		}
	],
	"samplers":[
		{
			"magFilter":9729,
			"minFilter":9987
		}
	],
	"buffers":[
		{
			"byteLength":463292,
			"uri":"agumon_clean.bin"
		}
	]
}
